<svg width="60" height="61" viewBox="0 0 60 61" fill="none" xmlns="http://www.w3.org/2000/svg">
<g filter="url(#filter0_d)">
<path d="M30 51.6023C43.8071 51.6023 55 40.4177 55 26.6208C55 12.8239 43.8071 1.63931 30 1.63931C16.1929 1.63931 5 12.8239 5 26.6208C5 40.4177 16.1929 51.6023 30 51.6023Z" fill="#EAB14D"/>
<path d="M30 1.63931C29.5537 1.63931 29.1103 1.65151 28.6697 1.67454C41.8584 2.36563 52.3395 13.2699 52.3395 26.6208C52.3395 39.9718 41.8584 50.876 28.6697 51.5671C29.1103 51.5901 29.5537 51.6023 30 51.6023C43.8071 51.6023 55 40.4177 55 26.6208C55 12.8239 43.8071 1.63931 30 1.63931Z" fill="#E49542"/>
<path d="M30 46.0875C40.7591 46.0875 49.4811 37.372 49.4811 26.6208C49.4811 15.8697 40.7591 7.15411 30 7.15411C19.2409 7.15411 10.5189 15.8697 10.5189 26.6208C10.5189 37.372 19.2409 46.0875 30 46.0875Z" fill="#F4FBFF"/>
<path d="M30 7.15411C29.4604 7.15411 28.9264 7.17705 28.3979 7.21998C38.4076 8.03422 46.2771 16.4088 46.2771 26.6208C46.2771 36.8329 38.4076 45.2073 28.3979 46.0217C28.9264 46.0647 29.4604 46.0876 30 46.0876C40.7592 46.0876 49.4811 37.372 49.4811 26.6209C49.4811 15.8698 40.7592 7.15411 30 7.15411Z" fill="#DAF1F4"/>
<path d="M30 13.1464C29.5833 13.1464 29.2455 12.8088 29.2455 12.3922V11.2852C29.2455 10.8687 29.5833 10.531 30 10.531C30.4167 10.531 30.7546 10.8687 30.7546 11.2852V12.3922C30.7546 12.8088 30.4167 13.1464 30 13.1464Z" fill="#2B4D66"/>
<path d="M40.028 17.3307C39.8348 17.3307 39.6418 17.257 39.4944 17.1098C39.1998 16.8152 39.1998 16.3379 39.4945 16.0433L40.2776 15.2607C40.5722 14.9662 41.05 14.9663 41.3447 15.2607C41.6393 15.5553 41.6393 16.0327 41.3446 16.3272L40.5615 17.1099C40.4141 17.257 40.2211 17.3307 40.028 17.3307Z" fill="#2B4D66"/>
<path d="M45.2651 27.3748H44.1577C43.7409 27.3748 43.4032 27.0373 43.4032 26.6209C43.4032 26.2045 43.741 25.867 44.1577 25.867H45.2651C45.6819 25.867 46.0196 26.2045 46.0196 26.6209C46.0196 27.0373 45.6818 27.3748 45.2651 27.3748Z" fill="#2B4D66"/>
<path d="M40.7529 38.1784C40.5598 38.1784 40.3667 38.1047 40.2193 37.9575L39.4363 37.175C39.1417 36.8804 39.1417 36.403 39.4363 36.1084C39.731 35.814 40.2087 35.814 40.5035 36.1084L41.2865 36.8909C41.5811 37.1855 41.5811 37.6629 41.2865 37.9575C41.1391 38.1047 40.946 38.1784 40.7529 38.1784Z" fill="#2B4D66"/>
<path d="M29.9178 42.6292C29.5011 42.6292 29.1633 42.2916 29.1633 41.8751V40.7683C29.1633 40.3518 29.5011 40.0143 29.9178 40.0143C30.3345 40.0143 30.6722 40.3519 30.6722 40.7683V41.8751C30.6722 42.2916 30.3345 42.6292 29.9178 42.6292Z" fill="#2B4D66"/>
<path d="M19.1066 38.1202C18.9136 38.1202 18.7204 38.0465 18.5731 37.8993C18.2784 37.6048 18.2785 37.1273 18.5731 36.8328L19.3562 36.0502C19.651 35.7558 20.1286 35.7557 20.4233 36.0503C20.718 36.3448 20.718 36.8222 20.4232 37.1168L19.6401 37.8994C19.4929 38.0466 19.2997 38.1202 19.1066 38.1202Z" fill="#2B4D66"/>
<path d="M15.76 27.2927H14.6526C14.2359 27.2927 13.8981 26.9552 13.8981 26.5388C13.8981 26.1224 14.2359 25.7849 14.6526 25.7849H15.76C16.1767 25.7849 16.5145 26.1224 16.5145 26.5388C16.5146 26.9552 16.1767 27.2927 15.76 27.2927Z" fill="#2B4D66"/>
<path d="M19.9479 17.2726C19.7549 17.2726 19.5618 17.199 19.4145 17.0517L18.6314 16.2692C18.3367 15.9746 18.3366 15.4972 18.6313 15.2027C18.926 14.9082 19.4036 14.9081 19.6983 15.2026L20.4814 15.9852C20.7761 16.2797 20.7762 16.7572 20.4815 17.0517C20.3341 17.1989 20.141 17.2726 19.9479 17.2726Z" fill="#2B4D66"/>
<path d="M30 27.3749H23.5918C23.1751 27.3749 22.8373 27.0372 22.8373 26.6208C22.8373 26.2045 23.1751 25.8669 23.5918 25.8669H29.2454V16.2747C29.2454 15.8583 29.5832 15.5208 29.9999 15.5208C30.4166 15.5208 30.7544 15.8583 30.7544 16.2747V26.6208C30.7545 27.0372 30.4167 27.3749 30 27.3749Z" fill="#2B4D66"/>
<path d="M37.7408 31.3538C37.6246 31.3538 37.5068 31.3268 37.3964 31.2701L29.655 27.2915C29.2844 27.1011 29.1385 26.6464 29.329 26.276C29.5195 25.9056 29.9744 25.7597 30.3451 25.9502L38.0865 29.9288C38.4571 30.1193 38.6031 30.5739 38.4125 30.9442C38.2786 31.2043 38.0146 31.3538 37.7408 31.3538Z" fill="#DA4A54"/>
<path d="M30 28.6332C31.1122 28.6332 32.0139 27.7322 32.0139 26.6208C32.0139 25.5094 31.1122 24.6085 30 24.6085C28.8878 24.6085 27.9861 25.5094 27.9861 26.6208C27.9861 27.7322 28.8878 28.6332 30 28.6332Z" fill="#365E7D"/>
</g>
<defs>
<filter id="filter0_d" x="0" y="0.639313" width="60" height="59.963" filterUnits="userSpaceOnUse" color-interpolation-filters="sRGB">
<feFlood flood-opacity="0" result="BackgroundImageFix"/>
<feColorMatrix in="SourceAlpha" type="matrix" values="0 0 0 0 0 0 0 0 0 0 0 0 0 0 0 0 0 0 127 0"/>
<feOffset dy="4"/>
<feGaussianBlur stdDeviation="2.5"/>
<feColorMatrix type="matrix" values="0 0 0 0 0 0 0 0 0 0 0 0 0 0 0 0 0 0 0.15 0"/>
<feBlend mode="normal" in2="BackgroundImageFix" result="effect1_dropShadow"/>
<feBlend mode="normal" in="SourceGraphic" in2="effect1_dropShadow" result="shape"/>
</filter>
</defs>
</svg>
