<svg width="24" height="25" viewBox="0 0 24 25" fill="none" xmlns="http://www.w3.org/2000/svg">
<path d="M21.153 16.8586C24.9499 13.0644 24.9498 6.89078 21.153 3.09661C17.356 -0.697566 11.1778 -0.697566 7.3809 3.09661C4.15966 6.31544 3.67181 11.1027 5.91602 14.841C5.91602 14.841 6.07722 15.1112 5.8595 15.3286C4.61744 16.5697 0.891034 20.2934 0.891034 20.2934C-0.0978967 21.2815 -0.33332 22.6633 0.54366 23.5397L0.694655 23.6905C1.57163 24.567 2.95448 24.3318 3.94334 23.3436C3.94334 23.3436 7.66186 19.6278 8.90137 18.3893C9.12952 18.1613 9.39989 18.3223 9.39989 18.3223C13.1409 20.5648 17.9317 20.0774 21.153 16.8586ZM9.17877 15.0619C6.37318 12.2584 6.37326 7.69688 9.17885 4.89337C11.9844 2.08995 16.5494 2.08987 19.3549 4.89337C22.1605 7.6968 22.1605 12.2584 19.3549 15.0619C16.5493 17.8653 11.9844 17.8653 9.17877 15.0619Z" fill="white"/>
<path d="M9.79968 9.40088C9.66909 9.40088 9.53634 9.37523 9.40839 9.32123C8.89726 9.10506 8.65812 8.51575 8.87445 8.00493C10.2341 4.79421 13.9543 3.28747 17.1673 4.64611C17.6784 4.86227 17.9176 5.45159 17.7012 5.96241C17.4848 6.47323 16.8952 6.71203 16.3839 6.49594C14.1917 5.56902 11.6533 6.59707 10.7258 8.78761C10.5635 9.17073 10.1913 9.40088 9.79968 9.40088Z" fill="white"/>
</svg>