<svg width="50" height="64" viewBox="0 0 50 64" fill="none"
                                        xmlns="http://www.w3.org/2000/svg">
                                        <g filter="url(#filter0_d)">
                                            <path
                                                d="M42.8705 6.22882H7.12955C5.95349 6.22882 5 7.18417 5 8.36277L5 52.8007C5 53.9792 5.95349 54.9347 7.12955 54.9347H42.8705C44.0466 54.9347 45.0001 53.9793 45.0001 52.8007V8.36277C45.0001 7.18428 44.0466 6.22882 42.8705 6.22882Z"
                                                fill="#64798A" />
                                            <path d="M42.6578 9.03311H7.34401L7.34401 52.6842H42.6578V9.03311Z"
                                                fill="#EBF0F3" />
                                            <path d="M42.6577 7.9628H7.34399L7.34399 51.6139H42.6577V7.9628Z"
                                                fill="white" />
                                            <path d="M36.033 6.22897H13.9699V7.96271H36.033V6.22897Z" fill="#3A556A" />
                                            <path d="M36.033 7.96271H13.9698V11.7733H36.033V7.96271Z" fill="#E1E6E9" />
                                            <path
                                                d="M33.5834 4.8125H28.2513C28.1994 3.05317 26.7681 1.64081 25.0002 1.64081C23.2317 1.64081 21.8007 3.05317 21.7487 4.8125H16.4167C15.9284 4.8125 15.5328 5.20891 15.5328 5.69813V10.2054H34.4674V5.69813C34.4673 5.20891 34.0717 4.8125 33.5834 4.8125Z"
                                                fill="#DC8744" />
                                            <path d="M13.0391 24.8348H9.66521V29.5014H13.0391V24.8348Z"
                                                fill="#E56353" />
                                            <path d="M17.5847 19.5663H14.2108V29.5019H17.5847V19.5663Z"
                                                fill="#27A2DB" />
                                            <path d="M22.131 14.2397H18.7571V29.5012H22.131V14.2397Z" fill="#44C4A1" />
                                            <path d="M26.6764 21.385H23.3025V29.5012H26.6764V21.385Z" fill="#FCD462" />
                                            <path d="M13.0391 28.0368H9.66518V29.5018H13.0391V28.0368Z"
                                                fill="#D15241" />
                                            <path d="M17.5847 28.0368H14.2108V29.5018H17.5847V28.0368Z"
                                                fill="#2D93BA" />
                                            <path d="M22.1309 28.0368H18.757V29.5018H22.1309V28.0368Z" fill="#3EA69B" />
                                            <path d="M26.6764 28.0369H23.3025V29.5019H26.6764V28.0369Z"
                                                fill="#F6C358" />
                                            <path d="M40.3348 31.8906H9.66521V32.9362H40.3348V31.8906Z"
                                                fill="#D5D6DB" />
                                            <path d="M40.3336 15.3923H29.9411V16.4378H40.3336V15.3923Z"
                                                fill="#D5D6DB" />
                                            <path d="M40.3337 19.5164H29.9411V20.562H40.3337V19.5164Z" fill="#D5D6DB" />
                                            <path d="M40.3336 23.6429H29.9411V24.6884H40.3336V23.6429Z"
                                                fill="#D5D6DB" />
                                            <path d="M40.3337 27.7659H29.9411V28.8114H40.3337V27.7659Z"
                                                fill="#D5D6DB" />
                                            <path d="M40.3347 36.0182H9.66518V37.0638H40.3347V36.0182Z"
                                                fill="#D5D6DB" />
                                            <path d="M40.3347 40.0346H9.66519V50.3748H40.3347V40.0346Z"
                                                fill="#D5D6DB" />
                                            <path d="M40.3347 39.6127H9.66519V49.9529H40.3347V39.6127Z"
                                                fill="#EBF0F3" />
                                            <path
                                                d="M10.2293 49.6695C10.1623 49.6695 10.0942 49.6462 10.0397 49.599C9.91827 49.4944 9.90464 49.3102 10.0091 49.1885L13.9142 44.6418C14.005 44.5361 14.156 44.5099 14.2774 44.5782L18.6036 47.0199L22.4293 43.0514C22.5213 42.9559 22.6677 42.9337 22.7856 43.0025L27.3978 45.7137L30.9727 41.7589C31.0613 41.66 31.2066 41.635 31.3212 41.6958L35.4703 43.8333L39.0475 40.7548C39.1712 40.6507 39.354 40.6638 39.4572 40.7855C39.5616 40.9078 39.548 41.0914 39.4266 41.196L35.7007 44.4024C35.6099 44.4797 35.484 44.4939 35.3784 44.4405L31.2542 42.3155L27.6702 46.2799C27.5782 46.3823 27.4272 46.4044 27.307 46.3357L22.688 43.6205L18.8657 47.5861C18.775 47.6805 18.6308 47.7021 18.514 47.6372L14.1991 45.2024L10.4494 49.5682C10.3916 49.6353 10.3109 49.6695 10.2293 49.6695Z"
                                                fill="#44C4A1" />
                                            <path
                                                d="M10.2293 49.6694C10.1192 49.6694 10.0136 49.6063 9.96481 49.4989C9.89783 49.3522 9.96254 49.1799 10.1089 49.1133L14.8993 46.9326C14.9731 46.8979 15.0559 46.8974 15.132 46.9293L18.5491 48.3605L21.9936 46.5233C22.0594 46.4881 22.1344 46.4801 22.207 46.4995L26.809 47.7652L31.0398 45.2292C31.1056 45.19 31.184 45.1793 31.2555 45.1957L36.3795 46.4205L37.8185 45.4266C37.9502 45.3367 38.1317 45.3691 38.2225 45.5011C38.3133 45.6336 38.2804 45.815 38.1476 45.9065L36.6019 46.9737C36.5339 47.0203 36.4476 47.0351 36.3704 47.017L31.2361 45.7894L27.0007 48.3288C26.9326 48.3692 26.852 48.3806 26.7749 48.3601L22.1638 47.092L18.7001 48.9395C18.624 48.9816 18.5322 48.9844 18.4515 48.9509L15.0242 47.5151L10.3496 49.6434C10.311 49.6609 10.2701 49.6694 10.2293 49.6694Z"
                                                fill="#E56353" />
                                        </g>
                                        <defs>
                                            <filter id="filter0_d" x="0" y="0.640808" width="50.0001" height="63.2939"
                                                filterUnits="userSpaceOnUse" color-interpolation-filters="sRGB">
                                                <feFlood flood-opacity="0" result="BackgroundImageFix" />
                                                <feColorMatrix in="SourceAlpha" type="matrix"
                                                    values="0 0 0 0 0 0 0 0 0 0 0 0 0 0 0 0 0 0 127 0" />
                                                <feOffset dy="4" />
                                                <feGaussianBlur stdDeviation="2.5" />
                                                <feColorMatrix type="matrix"
                                                    values="0 0 0 0 0 0 0 0 0 0 0 0 0 0 0 0 0 0 0.15 0" />
                                                <feBlend mode="normal" in2="BackgroundImageFix"
                                                    result="effect1_dropShadow" />
                                                <feBlend mode="normal" in="SourceGraphic" in2="effect1_dropShadow"
                                                    result="shape" />
                                            </filter>
                                        </defs>
                                    </svg>