<svg width="60" height="61" viewBox="0 0 60 61" fill="none"
                                        xmlns="http://www.w3.org/2000/svg">
                                        <g filter="url(#filter0_d)">
                                            <path
                                                d="M54.4094 25.343L52.1669 23.6236L53.8876 21.3827C54.4918 20.5958 54.1847 19.4504 53.2677 19.0708L50.6562 17.9899L51.7379 15.3804C52.1178 14.464 51.5244 13.437 50.5403 13.3077L47.7379 12.939L48.1068 10.1386C48.2364 9.1553 47.3973 8.31669 46.4132 8.44617L45.2157 8.6037V44.4756L46.4132 44.6332C47.3973 44.7627 48.2364 43.9241 48.1068 42.9408L47.7379 40.1404L50.5403 39.7718C51.5244 39.6423 52.1178 38.6154 51.7379 37.6991L50.6562 35.0895L53.2677 34.0086C54.1847 33.6291 54.4918 32.4837 53.8876 31.6968L52.1669 29.4559L54.4094 27.7364C55.1969 27.1326 55.1969 25.9468 54.4094 25.343Z"
                                                fill="#E49542" />
                                            <path
                                                d="M43.2418 47.0647L43.6107 44.2643L45.2157 44.4754C45.6885 44.1953 45.9973 43.6013 45.9208 42.9406L45.5963 40.1402L48.0604 39.7716C48.9257 39.6421 49.4474 38.6152 49.1134 37.6989L48.1623 35.0893L50.4585 34.0085C51.2648 33.629 51.5349 32.4835 51.0036 31.6966L49.4906 29.4557L51.4624 27.7362C52.1548 27.1325 52.1548 25.9466 51.4624 25.3428L49.4906 23.6234L51.0036 21.3825C51.5349 20.5957 51.2647 19.4502 50.4585 19.0706L48.1623 17.9897L49.1134 15.3802C49.4474 14.4639 48.9257 13.4369 48.0604 13.3075L45.5963 12.9389L45.9208 10.1384C45.9973 9.47765 45.6885 8.88383 45.2156 8.60355L43.6106 8.81476L43.5788 8.57369L43.2416 6.01442C43.112 5.03105 42.0844 4.43823 41.1674 4.81773L38.5559 5.89861L37.4742 3.28908C37.0943 2.37276 35.9481 2.06584 35.1606 2.66962L32.9181 4.38907L31.1976 2.14818C30.5933 1.36133 29.4066 1.36133 28.8024 2.14818L27.0817 4.38907L24.8391 2.66962C24.0517 2.06584 22.9054 2.37276 22.5255 3.28908L21.4439 5.89861L18.8324 4.81773C17.9154 4.43823 16.8876 5.03115 16.7582 6.01442L16.3892 8.81476L13.5868 8.44612C12.6027 8.31664 11.7636 9.15515 11.8932 10.1385L12.2621 12.9389L9.45968 13.3075C8.47567 13.437 7.88221 14.4639 8.26209 15.3802L9.34378 17.9897L6.73232 19.0706C5.81532 19.4502 5.50817 20.5956 6.1124 21.3825L7.83312 23.6234L5.59057 25.3428C4.80314 25.9466 4.80314 27.1325 5.59057 27.7362L7.83312 29.4557L6.1124 31.6966C5.50817 32.4834 5.81532 33.6289 6.73232 34.0085L9.34378 35.0893L8.26209 37.6989C7.88221 38.6152 8.47557 39.6422 9.45968 39.7716L12.2621 40.1402L11.8932 42.9406C11.7636 43.9239 12.6027 44.7625 13.5868 44.633L16.3892 44.2643L16.7582 47.0647C16.8877 48.048 17.9154 48.6409 18.8324 48.2614L21.4439 47.1805L22.5255 49.79C22.9053 50.7063 24.0516 51.0133 24.8391 50.4095L27.0817 48.69L28.8024 50.9309C29.4066 51.7178 30.5933 51.7178 31.1976 50.9309L32.9183 48.69L35.1608 50.4095C35.9483 51.0133 37.0945 50.7063 37.4744 49.79L38.5561 47.1805L41.1676 48.2614C42.0846 48.641 43.1122 48.048 43.2418 47.0647Z"
                                                fill="#EAB14D" />
                                            <path
                                                d="M37.4694 27.9719C34.1357 27.9719 31.4332 30.6724 31.4332 34.0036C31.4332 37.3348 34.1357 40.0353 37.4694 40.0353C40.8031 40.0353 43.5056 37.3348 43.5056 34.0036C43.5056 30.6724 40.8031 27.9719 37.4694 27.9719ZM37.4694 37.0194C35.8026 37.0194 34.4513 35.6692 34.4513 34.0036C34.4513 32.338 35.8026 30.9877 37.4694 30.9877C39.1363 30.9877 40.4875 32.338 40.4875 34.0036C40.4875 35.6692 39.1363 37.0194 37.4694 37.0194Z"
                                                fill="#F4FBFF" />
                                            <path
                                                d="M22.5306 13.0441C19.1969 13.0441 16.4944 15.7446 16.4944 19.0759C16.4944 22.4071 19.1969 25.1077 22.5306 25.1077C25.8643 25.1077 28.5668 22.4071 28.5668 19.0759C28.5668 15.7446 25.8643 13.0441 22.5306 13.0441ZM22.5306 22.0918C20.8638 22.0918 19.5125 20.7415 19.5125 19.0759C19.5125 17.4103 20.8638 16.06 22.5306 16.06C24.1975 16.06 25.5487 17.4103 25.5487 19.0759C25.5487 20.7415 24.1974 22.0918 22.5306 22.0918Z"
                                                fill="#F4FBFF" />
                                            <path
                                                d="M19.0093 37.5223C18.4199 36.9334 18.4199 35.9787 19.0093 35.3898L38.8566 15.557C39.446 14.9681 40.4014 14.9681 40.9907 15.557C41.5801 16.1459 41.5801 17.1007 40.9907 17.6896L21.1434 37.5223C20.554 38.1112 19.5986 38.1112 19.0093 37.5223Z"
                                                fill="#F4FBFF" />
                                        </g>
                                        <defs>
                                            <filter id="filter0_d" x="0" y="0.558044" width="60" height="59.963"
                                                filterUnits="userSpaceOnUse" color-interpolation-filters="sRGB">
                                                <feFlood flood-opacity="0" result="BackgroundImageFix" />
                                                <feColorMatrix in="SourceAlpha" type="matrix"
                                                    values="0 0 0 0 0 0 0 0 0 0 0 0 0 0 0 0 0 0 127 0" />
                                                <feOffset dy="4" />
                                                <feGaussianBlur stdDeviation="2.5" />
                                                <feColorMatrix type="matrix"
                                                    values="0 0 0 0 0 0 0 0 0 0 0 0 0 0 0 0 0 0 0.15 0" />
                                                <feBlend mode="normal" in2="BackgroundImageFix"
                                                    result="effect1_dropShadow" />
                                                <feBlend mode="normal" in="SourceGraphic" in2="effect1_dropShadow"
                                                    result="shape" />
                                            </filter>
                                        </defs>
                                    </svg>