<svg width="50" height="67" viewBox="0 0 50 67" fill="none"
                                        xmlns="http://www.w3.org/2000/svg">
                                        <g filter="url(#filter0_d)">
                                            <path
                                                d="M38.216 33.3143C38.2734 33.2175 38.3309 33.1398 38.3882 33.0775C40.5704 29.6766 41.7611 25.5154 41.7611 21.2192C41.7611 10.3793 34.2821 1.56024 25.0894 1.56024C15.8969 1.56024 8.41797 10.3793 8.41797 21.2192C8.41797 25.5639 9.63588 29.7694 11.8656 33.1905C11.8893 33.2234 11.9131 33.2593 11.9368 33.2984C12.009 33.4076 12.0823 33.5159 12.1564 33.6234C12.9902 34.7043 14.0592 34.4547 14.3678 34.3523C14.3966 34.3415 14.426 34.3308 14.4552 34.32L14.4555 34.3199C15.5567 33.9124 16.7795 33.5697 18.1006 33.2999L20.4097 32.8283L18.6682 31.2414C17.2513 29.9508 16.3292 28.2005 16.0722 26.3131L15.942 25.3593L14.9818 25.2812C13.4004 25.1527 12.1617 23.8094 12.1617 22.2231C12.1617 20.6421 13.3472 19.329 14.9193 19.1687L15.9776 19.0607L15.992 18.2195C17.0588 17.9054 21.7622 16.3861 25.0666 13.153C25.8452 14.0611 28.7644 17.0631 34.1882 18.2362L34.202 19.0608L35.2609 19.1688C36.8323 19.3293 38.0176 20.6423 38.0176 22.2231C38.0176 23.8093 36.7789 25.1525 35.1976 25.2812L34.2374 25.3593L34.1072 26.3134C33.8501 28.2002 32.9283 29.9504 31.5116 31.2411L29.77 32.828L32.0793 33.2994C33.4591 33.5812 34.732 33.9431 35.8722 34.3755C36.2896 34.4934 37.4185 34.6559 38.216 33.3143Z"
                                                fill="#694B4B" />
                                            <path
                                                d="M29.5753 37.0711V32.7189L28.0739 33.1105C27.4018 33.2859 26.7071 33.3749 26.0093 33.3749H24.1705C23.4685 33.3749 22.7693 33.2846 22.0923 33.1067L20.5888 32.7113V37.0681L16.1174 38.1373L17.0897 41.6057L17.4929 41.8507C18.0964 42.2179 19.7423 43.1254 21.9869 43.6171C23.0426 43.8483 24.1068 43.9656 25.1499 43.9657H25.1503C27.7363 43.9657 30.267 43.2524 32.6719 41.8458L33.0902 41.6015L34.0447 38.1967L29.5753 37.0711Z"
                                                fill="#FBCB99" />
                                            <path
                                                d="M23.4252 43.617C21.1805 43.1251 19.5347 42.2178 18.9313 41.8506L17.9746 38.3384L21.6392 37.4559V33.2642L20.5888 32.7112V37.068L16.1174 38.1372L17.0897 41.6056L17.4929 41.8506C18.0964 42.2178 19.7423 43.1252 21.9869 43.617C23.0426 43.8482 24.1068 43.9655 25.1499 43.9656H25.1503C25.3859 43.9656 25.6207 43.9576 25.8551 43.9458C25.049 43.9039 24.2348 43.7943 23.4252 43.617Z"
                                                fill="#EDBA89" />
                                            <path
                                                d="M31.0337 42.357C29.129 43.2194 27.136 43.6567 25.1098 43.6567C24.0612 43.6567 23.0067 43.5394 21.9759 43.3079C21.0069 43.0904 20.0541 42.7755 19.1442 42.3718L17.3929 41.5947L21.8242 57.2499H28.3552L32.7965 41.559L31.0337 42.357Z"
                                                fill="#F5F5F7" />
                                            <path
                                                d="M17.3927 41.5944L21.8241 57.2496H23.2622L19.0376 42.3242L17.3927 41.5944Z"
                                                fill="#D2D2D7" />
                                            <path
                                                d="M40.3389 40.6131C39.8054 40.3084 39.202 40.0206 38.5714 39.7533L38.2861 39.6346C36.3454 38.8406 34.2132 38.244 33.0923 37.9538L27.6833 57.2496H42.9496C44.6509 57.2496 44.9532 55.9122 45 55.2675V49.5163C45.0001 44.8143 42.4774 41.9747 40.3389 40.6131Z"
                                                fill="#324A5E" />
                                            <path
                                                d="M16.9079 37.9549C15.7869 38.2451 13.6546 38.8416 11.714 39.6357L11.4287 39.7544C10.7982 40.0217 10.1947 40.3095 9.66124 40.6142C7.52268 41.9759 5 44.8154 5 49.5175V55.2687C5.04713 55.9133 5.34919 57.2507 7.0505 57.2507H22.3168L16.9079 37.9549Z"
                                                fill="#324A5E" />
                                            <path
                                                d="M6.97781 55.2675V52.2264V49.5162C6.97781 44.8142 9.5006 41.9747 11.639 40.613C12.1725 40.3083 12.776 40.0205 13.4065 39.7532L13.6918 39.6345C14.827 39.1701 16.0264 38.774 17.0519 38.4664L16.9082 37.9537C15.7873 38.2439 13.6549 38.8404 11.7144 39.6345L11.4291 39.7532C10.7985 40.0205 10.1951 40.3082 9.66159 40.613C7.52303 41.9747 5.00024 44.8142 5.00024 49.5162V55.2674C5.0465 55.9026 5.34159 57.2094 6.97781 57.2476V55.2675Z"
                                                fill="#283D4C" />
                                            <path
                                                d="M38.5442 57.2495V49.3491C38.5442 48.8529 38.1419 48.4509 37.6453 48.4509C37.1487 48.4509 36.7464 48.8529 36.7464 49.3491V57.2495H38.5442Z"
                                                fill="#283D4C" />
                                            <path
                                                d="M13.1489 57.2495V49.3491C13.1489 48.8529 12.7466 48.4509 12.25 48.4509C11.7534 48.4509 11.3511 48.8529 11.3511 49.3491V57.2495H13.1489Z"
                                                fill="#283D4C" />
                                            <path
                                                d="M35.8783 18.4482C35.3949 18.2977 34.8699 18.3855 34.4622 18.6849C34.0551 18.9844 33.8145 19.46 33.8145 19.9654V24.494C33.8145 24.9991 34.0549 25.4743 34.4622 25.7735C34.7389 25.9771 35.0697 26.0829 35.405 26.0829C35.5629 26.0829 35.723 26.0596 35.8778 26.0108C36.1827 25.9161 36.4821 25.779 36.7679 25.6039C36.9359 25.501 37.0834 25.3671 37.2029 25.2106C37.3783 25.1202 37.5353 24.9981 37.6663 24.8504C38.3089 24.1243 38.6628 23.1936 38.6628 22.2292C38.6628 20.4865 37.5439 18.9669 35.8783 18.4482Z"
                                                fill="#FBCB99" />
                                            <path
                                                d="M15.7003 18.6848C15.2928 18.3855 14.7672 18.2977 14.2845 18.4478C12.619 18.967 11.4995 20.4866 11.4995 22.229C11.4995 23.9724 12.619 25.4919 14.2845 26.0108C14.4394 26.0595 14.5991 26.0829 14.7579 26.0829C15.0926 26.0829 15.4234 25.9771 15.7003 25.7737C16.108 25.4744 16.3484 24.9991 16.3484 24.4939V19.9649C16.3485 19.4599 16.1081 18.9844 15.7003 18.6848Z"
                                                fill="#EDBA89" />
                                            <path
                                                d="M34.7748 18.5096C34.7748 18.5096 34.7815 18.4767 34.7839 18.4245V18.3453C34.7741 18.1553 34.6904 17.8445 34.2955 17.6517L33.8653 17.5486C29.7038 16.5497 27.2127 14.5361 26.0329 13.3321C26.0329 13.3321 26.0328 13.332 26.0326 13.3319C25.0292 12.4138 23.9887 13.3319 23.9887 13.3319L23.9886 13.3318C21.1541 15.7955 17.6392 17.0785 16.2328 17.5225L16.0443 17.5819C16.044 17.582 16.0439 17.5821 16.0439 17.5821C15.5644 17.7395 15.4284 18.0455 15.3953 18.2631V25.2052C15.3953 30.0401 19.3318 33.9738 24.1705 33.9738H26.0092C30.8477 33.9738 34.7839 30.0401 34.7839 25.2052V18.5022L34.7748 18.5096Z"
                                                fill="#FBCB99" />
                                            <path
                                                d="M25.6983 13.0912C24.8108 12.6076 23.9887 13.3319 23.9887 13.3319L23.9886 13.3318C21.1541 15.7955 17.6392 17.0785 16.2328 17.5225L16.0443 17.5819C16.044 17.582 16.0439 17.5821 16.0439 17.5821C15.5644 17.7395 15.4284 18.0455 15.3953 18.2631V25.2052C15.3953 30.0401 19.3318 33.9738 24.1705 33.9738H25.6087C20.77 33.9738 16.8335 30.0401 16.8335 25.2052V18.7694C16.8335 17.9783 17.4142 17.6323 17.747 17.4983C17.8186 17.4754 17.8938 17.451 17.9746 17.4241L17.9752 17.424H17.975C19.5828 16.8895 22.9715 15.5587 25.6596 13.1261L25.6983 13.0912Z"
                                                fill="#EDBA89" />
                                            <path
                                                d="M25.8601 25.0285C26.1906 25.0285 26.4593 25.2971 26.4593 25.6272C26.4593 25.9574 26.1905 26.226 25.8601 26.226H24.3289C23.9985 26.226 23.7297 25.9574 23.7297 25.6272V22.7084C23.7297 22.3782 23.9986 22.1097 24.3289 22.1097C24.6593 22.1097 24.9282 22.3783 24.9282 22.7084V25.0285H25.8601Z"
                                                fill="#EDBA89" />
                                            <path
                                                d="M11.9368 33.2985C12.009 33.4077 12.0823 33.5161 12.1564 33.6235C13.0233 34.7477 14.1446 34.4329 14.4008 34.3412C14.4193 34.3342 14.4371 34.3271 14.4555 34.3201L14.3113 34.1251C11.6703 30.5516 10.2158 25.9683 10.2158 21.2193C10.2158 10.7349 17.212 2.14161 25.9883 1.58896C25.6908 1.57036 25.3912 1.56024 25.0896 1.56024C15.897 1.56024 8.41808 10.3793 8.41808 21.2193C8.41808 25.5639 9.63599 29.7694 11.8658 33.1905C11.8893 33.2235 11.9131 33.2595 11.9368 33.2985Z"
                                                fill="#563B3B" />
                                        </g>
                                        <defs>
                                            <filter id="filter0_d" x="0" y="0.560242" width="50" height="65.6905"
                                                filterUnits="userSpaceOnUse" color-interpolation-filters="sRGB">
                                                <feFlood flood-opacity="0" result="BackgroundImageFix" />
                                                <feColorMatrix in="SourceAlpha" type="matrix"
                                                    values="0 0 0 0 0 0 0 0 0 0 0 0 0 0 0 0 0 0 127 0" />
                                                <feOffset dy="4" />
                                                <feGaussianBlur stdDeviation="2.5" />
                                                <feColorMatrix type="matrix"
                                                    values="0 0 0 0 0 0 0 0 0 0 0 0 0 0 0 0 0 0 0.15 0" />
                                                <feBlend mode="normal" in2="BackgroundImageFix"
                                                    result="effect1_dropShadow" />
                                                <feBlend mode="normal" in="SourceGraphic" in2="effect1_dropShadow"
                                                    result="shape" />
                                            </filter>
                                        </defs>
                                    </svg>